<svg xmlns="http://www.w3.org/2000/svg" xmlns:xlink="http://www.w3.org/1999/xlink" width="150" zoomAndPan="magnify" viewBox="0 0 112.5 112.499997" height="150" preserveAspectRatio="xMidYMid meet" version="1.0"><defs><g/><clipPath id="7ae4999c72"><path d="M 0 0 L 112.003906 0 L 112.003906 112.003906 L 0 112.003906 Z M 0 0 " clip-rule="nonzero"/></clipPath></defs><g clip-path="url(#7ae4999c72)"><path fill="#ffffff" d="M 0 0 L 112.003906 0 L 112.003906 112.003906 L 0 112.003906 Z M 0 0 " fill-opacity="1" fill-rule="nonzero"/><path fill="#000000" d="M 0 0 L 112.003906 0 L 112.003906 112.003906 L 0 112.003906 Z M 0 0 " fill-opacity="1" fill-rule="nonzero"/></g><path fill="#ffcc00" d="M 44.507812 65.667969 L 56.605469 54.433594 C 55.027344 50.867188 56.574219 45.53125 60.695312 41.425781 L 68.328125 33.820312 L 66.324219 31.820312 L 53.578125 43.660156 C 55.15625 47.226562 53.605469 52.5625 49.484375 56.667969 C 46.632812 59.507812 43.1875 61.117188 40.148438 61.324219 Z M 44.507812 65.667969 " fill-opacity="1" fill-rule="nonzero"/><path fill="#5bd2bc" d="M 61.386719 46.171875 C 61.902344 46.683594 62.734375 46.683594 63.25 46.171875 L 71.988281 37.464844 L 70.125 35.609375 L 61.386719 44.316406 C 60.871094 44.828125 60.871094 45.660156 61.386719 46.171875 Z M 61.386719 46.171875 " fill-opacity="1" fill-rule="nonzero"/><path fill="#5bd2bc" d="M 68.09375 50.996094 C 67.578125 51.507812 67.578125 52.339844 68.09375 52.851562 C 68.609375 53.367188 69.441406 53.367188 69.957031 52.851562 L 78.683594 44.15625 C 78.613281 44.085938 78.554688 44.007812 78.480469 43.9375 L 76.832031 42.292969 Z M 68.09375 50.996094 " fill-opacity="1" fill-rule="nonzero"/><path fill="#ff5900" d="M 37.464844 44.691406 C 41.582031 40.585938 46.941406 39.039062 50.519531 40.613281 L 62.398438 27.914062 L 61.378906 26.894531 C 58.398438 23.925781 53.566406 23.925781 50.589844 26.894531 L 33.484375 43.9375 C 30.757812 46.652344 30.535156 50.902344 32.792969 53.882812 C 33.03125 50.878906 34.648438 47.496094 37.464844 44.691406 Z M 37.464844 44.691406 " fill-opacity="1" fill-rule="nonzero"/><path fill="#5bd2bc" d="M 66.644531 49.554688 L 75.382812 40.847656 L 73.519531 38.992188 L 64.78125 47.699219 C 64.269531 48.210938 64.269531 49.042969 64.78125 49.554688 C 65.296875 50.066406 66.132812 50.066406 66.644531 49.554688 Z M 66.644531 49.554688 " fill-opacity="1" fill-rule="nonzero"/><path fill="#5bd2bc" d="M 72.71875 53.402344 C 68.597656 57.507812 63.238281 59.050781 59.660156 57.480469 L 48.382812 69.53125 L 50.589844 71.726562 C 53.570312 74.695312 58.398438 74.695312 61.378906 71.726562 L 78.480469 54.6875 C 80.804688 52.375 81.308594 48.945312 80.011719 46.136719 Z M 72.71875 53.402344 " fill-opacity="1" fill-rule="nonzero"/><g fill="#ffffff" fill-opacity="1"><g transform="translate(32.111029, 84.399241)"><g><path d="M 5.703125 -2.28125 L 5.703125 -0.65625 L 3.671875 0.1875 L 3.390625 0.203125 C 2.640625 0.203125 2.015625 0.046875 1.515625 -0.265625 C 1.023438 -0.585938 0.664062 -0.992188 0.4375 -1.484375 C 0.21875 -1.972656 0.109375 -2.484375 0.109375 -3.015625 C 0.109375 -3.628906 0.242188 -4.195312 0.515625 -4.71875 C 0.785156 -5.25 1.179688 -5.675781 1.703125 -6 C 2.234375 -6.320312 2.863281 -6.484375 3.59375 -6.484375 C 4.40625 -6.484375 5.082031 -6.289062 5.625 -5.90625 L 5.640625 -5.703125 C 5.640625 -5.253906 5.570312 -4.78125 5.4375 -4.28125 L 4.5625 -4.28125 L 4.328125 -5.34375 C 3.847656 -5.550781 3.34375 -5.65625 2.8125 -5.65625 L 2.578125 -5.640625 C 2.242188 -5.398438 1.992188 -5.0625 1.828125 -4.625 C 1.671875 -4.195312 1.59375 -3.726562 1.59375 -3.21875 C 1.59375 -2.5 1.769531 -1.90625 2.125 -1.4375 C 2.488281 -0.976562 2.957031 -0.75 3.53125 -0.75 C 3.75 -0.738281 4.03125 -0.765625 4.375 -0.828125 L 4.375 -2.140625 C 4.03125 -2.265625 3.707031 -2.410156 3.40625 -2.578125 L 3.46875 -2.890625 L 6.421875 -2.890625 L 6.4375 -2.4375 Z M 5.703125 -2.28125 "/></g></g></g><g fill="#ffffff" fill-opacity="1"><g transform="translate(38.751873, 84.399241)"><g><path d="M 6.53125 -0.484375 L 6.515625 0 L 4.609375 0 L 3.3125 -2.4375 L 2.515625 -2.421875 L 2.515625 -0.609375 L 3.375 -0.484375 L 3.359375 0 L 0.3125 0 L 0.25 -0.3125 C 0.4375 -0.425781 0.707031 -0.554688 1.0625 -0.703125 L 1.0625 -5.71875 L 0.359375 -5.796875 L 0.359375 -6.296875 L 3.40625 -6.375 C 4.144531 -6.375 4.75 -6.1875 5.21875 -5.8125 C 5.6875 -5.445312 5.921875 -4.984375 5.921875 -4.421875 C 5.921875 -4.046875 5.804688 -3.695312 5.578125 -3.375 C 5.347656 -3.050781 5.035156 -2.8125 4.640625 -2.65625 L 5.921875 -0.5625 Z M 2.515625 -3.234375 C 2.734375 -3.191406 2.941406 -3.171875 3.140625 -3.171875 C 3.585938 -3.171875 3.910156 -3.285156 4.109375 -3.515625 C 4.316406 -3.742188 4.421875 -4.039062 4.421875 -4.40625 C 4.421875 -4.957031 4.226562 -5.363281 3.84375 -5.625 L 2.515625 -5.484375 Z M 2.515625 -3.234375 "/></g></g></g><g fill="#ffffff" fill-opacity="1"><g transform="translate(45.364054, 84.399241)"><g><path d="M 6.96875 -5.984375 C 6.726562 -5.847656 6.457031 -5.71875 6.15625 -5.59375 L 6.15625 -2.734375 C 6.15625 -1.710938 5.929688 -0.96875 5.484375 -0.5 C 5.035156 -0.0390625 4.429688 0.1875 3.671875 0.1875 C 2.796875 0.1875 2.101562 -0.0703125 1.59375 -0.59375 C 1.082031 -1.113281 0.820312 -1.832031 0.8125 -2.75 L 0.8125 -5.703125 L 0.078125 -5.796875 L 0.09375 -6.296875 L 3.015625 -6.296875 L 3.0625 -5.984375 C 2.832031 -5.847656 2.566406 -5.71875 2.265625 -5.59375 L 2.265625 -2.53125 C 2.265625 -1.925781 2.398438 -1.46875 2.671875 -1.15625 C 2.953125 -0.84375 3.332031 -0.6875 3.8125 -0.6875 C 4.125 -0.6875 4.398438 -0.765625 4.640625 -0.921875 C 4.953125 -1.210938 5.113281 -1.785156 5.125 -2.640625 L 5.125 -5.6875 L 4.3125 -5.796875 L 4.328125 -6.296875 L 6.90625 -6.296875 Z M 6.96875 -5.984375 "/></g></g></g><g fill="#ffffff" fill-opacity="1"><g transform="translate(52.406217, 84.399241)"><g><path d="M 4.578125 -3.34375 C 5.054688 -3.25 5.425781 -3.054688 5.6875 -2.765625 C 5.957031 -2.472656 6.09375 -2.128906 6.09375 -1.734375 C 6.09375 -1.222656 5.867188 -0.8125 5.421875 -0.5 C 4.984375 -0.1875 4.378906 -0.0195312 3.609375 0 L 0.3125 0 L 0.25 -0.3125 C 0.4375 -0.425781 0.707031 -0.554688 1.0625 -0.703125 L 1.0625 -5.71875 L 0.375 -5.796875 L 0.390625 -6.296875 C 1.316406 -6.347656 2.3125 -6.375 3.375 -6.375 C 4.101562 -6.375 4.6875 -6.222656 5.125 -5.921875 C 5.5625 -5.617188 5.78125 -5.226562 5.78125 -4.75 C 5.78125 -4.4375 5.675781 -4.140625 5.46875 -3.859375 C 5.257812 -3.585938 4.960938 -3.414062 4.578125 -3.34375 Z M 2.515625 -5.484375 L 2.515625 -3.59375 L 2.953125 -3.59375 C 3.410156 -3.59375 3.75 -3.6875 3.96875 -3.875 C 4.195312 -4.070312 4.3125 -4.3125 4.3125 -4.59375 C 4.3125 -4.820312 4.238281 -5.035156 4.09375 -5.234375 C 3.945312 -5.441406 3.769531 -5.570312 3.5625 -5.625 Z M 3.28125 -0.734375 L 3.4375 -0.734375 C 3.800781 -0.734375 4.078125 -0.832031 4.265625 -1.03125 C 4.453125 -1.238281 4.546875 -1.484375 4.546875 -1.765625 C 4.546875 -2.085938 4.429688 -2.363281 4.203125 -2.59375 C 3.972656 -2.832031 3.679688 -2.957031 3.328125 -2.96875 L 2.515625 -2.96875 L 2.515625 -0.8125 Z M 3.28125 -0.734375 "/></g></g></g><g fill="#ffffff" fill-opacity="1"><g transform="translate(58.789072, 84.399241)"><g><path d="M 7.4375 -0.484375 L 7.421875 0 L 4.328125 0 L 4.28125 -0.3125 C 4.457031 -0.425781 4.726562 -0.554688 5.09375 -0.703125 L 5.09375 -2.71875 L 2.515625 -2.71875 L 2.515625 -0.609375 L 3.390625 -0.484375 L 3.390625 0 L 0.3125 0 L 0.25 -0.3125 C 0.4375 -0.425781 0.707031 -0.554688 1.0625 -0.703125 L 1.0625 -5.703125 L 0.328125 -5.796875 L 0.328125 -6.296875 L 3.265625 -6.296875 L 3.3125 -5.984375 C 3.082031 -5.847656 2.816406 -5.71875 2.515625 -5.59375 L 2.515625 -3.53125 L 5.09375 -3.53125 L 5.09375 -5.703125 L 4.34375 -5.796875 L 4.359375 -6.296875 L 7.296875 -6.296875 L 7.359375 -5.984375 C 7.148438 -5.859375 6.878906 -5.726562 6.546875 -5.59375 L 6.546875 -0.609375 Z M 7.4375 -0.484375 "/></g></g></g><g fill="#ffffff" fill-opacity="1"><g transform="translate(66.461876, 84.399241)"><g><path d="M 6.96875 -5.984375 C 6.726562 -5.847656 6.457031 -5.71875 6.15625 -5.59375 L 6.15625 -2.734375 C 6.15625 -1.710938 5.929688 -0.96875 5.484375 -0.5 C 5.035156 -0.0390625 4.429688 0.1875 3.671875 0.1875 C 2.796875 0.1875 2.101562 -0.0703125 1.59375 -0.59375 C 1.082031 -1.113281 0.820312 -1.832031 0.8125 -2.75 L 0.8125 -5.703125 L 0.078125 -5.796875 L 0.09375 -6.296875 L 3.015625 -6.296875 L 3.0625 -5.984375 C 2.832031 -5.847656 2.566406 -5.71875 2.265625 -5.59375 L 2.265625 -2.53125 C 2.265625 -1.925781 2.398438 -1.46875 2.671875 -1.15625 C 2.953125 -0.84375 3.332031 -0.6875 3.8125 -0.6875 C 4.125 -0.6875 4.398438 -0.765625 4.640625 -0.921875 C 4.953125 -1.210938 5.113281 -1.785156 5.125 -2.640625 L 5.125 -5.6875 L 4.3125 -5.796875 L 4.328125 -6.296875 L 6.90625 -6.296875 Z M 6.96875 -5.984375 "/></g></g></g><g fill="#ffffff" fill-opacity="1"><g transform="translate(73.504039, 84.399241)"><g><path d="M 4.578125 -3.34375 C 5.054688 -3.25 5.425781 -3.054688 5.6875 -2.765625 C 5.957031 -2.472656 6.09375 -2.128906 6.09375 -1.734375 C 6.09375 -1.222656 5.867188 -0.8125 5.421875 -0.5 C 4.984375 -0.1875 4.378906 -0.0195312 3.609375 0 L 0.3125 0 L 0.25 -0.3125 C 0.4375 -0.425781 0.707031 -0.554688 1.0625 -0.703125 L 1.0625 -5.71875 L 0.375 -5.796875 L 0.390625 -6.296875 C 1.316406 -6.347656 2.3125 -6.375 3.375 -6.375 C 4.101562 -6.375 4.6875 -6.222656 5.125 -5.921875 C 5.5625 -5.617188 5.78125 -5.226562 5.78125 -4.75 C 5.78125 -4.4375 5.675781 -4.140625 5.46875 -3.859375 C 5.257812 -3.585938 4.960938 -3.414062 4.578125 -3.34375 Z M 2.515625 -5.484375 L 2.515625 -3.59375 L 2.953125 -3.59375 C 3.410156 -3.59375 3.75 -3.6875 3.96875 -3.875 C 4.195312 -4.070312 4.3125 -4.3125 4.3125 -4.59375 C 4.3125 -4.820312 4.238281 -5.035156 4.09375 -5.234375 C 3.945312 -5.441406 3.769531 -5.570312 3.5625 -5.625 Z M 3.28125 -0.734375 L 3.4375 -0.734375 C 3.800781 -0.734375 4.078125 -0.832031 4.265625 -1.03125 C 4.453125 -1.238281 4.546875 -1.484375 4.546875 -1.765625 C 4.546875 -2.085938 4.429688 -2.363281 4.203125 -2.59375 C 3.972656 -2.832031 3.679688 -2.957031 3.328125 -2.96875 L 2.515625 -2.96875 L 2.515625 -0.8125 Z M 3.28125 -0.734375 "/></g></g></g><g fill="#ffffff" fill-opacity="1"><g transform="translate(43.68557, 88.52093)"><g><path d="M 1.515625 -1.59375 L 1.515625 -1.515625 C 1.515625 -1.347656 1.503906 -1.203125 1.484375 -1.078125 L 1.296875 -1.078125 L 1.25 -1.390625 L 0.953125 -1.40625 L 0.953125 -0.15625 L 1.203125 -0.125 L 1.1875 0 L 0.359375 0 L 0.34375 -0.078125 C 0.382812 -0.0976562 0.46875 -0.132812 0.59375 -0.1875 L 0.59375 -1.40625 L 0.28125 -1.390625 L 0.25 -1.078125 L 0.0625 -1.078125 C 0.03125 -1.203125 0.015625 -1.347656 0.015625 -1.515625 L 0.015625 -1.59375 L 0.78125 -1.578125 Z M 1.515625 -1.59375 "/></g></g></g><g fill="#ffffff" fill-opacity="1"><g transform="translate(45.914879, 88.52093)"><g><path d="M 0.796875 -1.140625 C 0.835938 -1.160156 0.878906 -1.171875 0.921875 -1.171875 C 1.003906 -1.171875 1.070312 -1.144531 1.125 -1.09375 C 1.113281 -0.914062 1.082031 -0.765625 1.03125 -0.640625 L 0.859375 -0.640625 L 0.8125 -0.90625 C 0.71875 -0.84375 0.632812 -0.769531 0.5625 -0.6875 L 0.5625 -0.203125 C 0.675781 -0.179688 0.765625 -0.148438 0.828125 -0.109375 L 0.8125 0 L 0.046875 0 L 0.046875 -0.078125 C 0.0859375 -0.109375 0.144531 -0.132812 0.21875 -0.15625 L 0.21875 -0.96875 L 0.03125 -0.984375 L 0.015625 -1.09375 C 0.160156 -1.144531 0.304688 -1.175781 0.453125 -1.1875 L 0.5625 -1.078125 L 0.5625 -0.875 Z M 0.796875 -1.140625 "/></g></g></g><g fill="#ffffff" fill-opacity="1"><g transform="translate(47.730823, 88.52093)"><g><path d="M 0.96875 -0.5625 L 0.359375 -0.578125 C 0.367188 -0.460938 0.40625 -0.367188 0.46875 -0.296875 C 0.539062 -0.234375 0.628906 -0.203125 0.734375 -0.203125 C 0.816406 -0.203125 0.914062 -0.234375 1.03125 -0.296875 L 1.09375 -0.15625 L 0.71875 0.03125 L 0.640625 0.03125 C 0.460938 0.03125 0.316406 -0.0195312 0.203125 -0.125 C 0.0859375 -0.238281 0.03125 -0.378906 0.03125 -0.546875 C 0.03125 -0.722656 0.0859375 -0.875 0.203125 -1 C 0.316406 -1.125 0.457031 -1.1875 0.625 -1.1875 C 0.769531 -1.1875 0.882812 -1.140625 0.96875 -1.046875 C 1.0625 -0.960938 1.109375 -0.847656 1.109375 -0.703125 Z M 0.546875 -1 C 0.460938 -0.957031 0.40625 -0.867188 0.375 -0.734375 L 0.796875 -0.765625 C 0.785156 -0.828125 0.753906 -0.878906 0.703125 -0.921875 C 0.660156 -0.972656 0.609375 -1 0.546875 -1 Z M 0.546875 -1 "/></g></g></g><g fill="#ffffff" fill-opacity="1"><g transform="translate(49.575439, 88.52093)"><g><path d="M 1.28125 -0.109375 L 0.984375 0.03125 C 0.953125 0.03125 0.914062 0.015625 0.875 -0.015625 C 0.832031 -0.046875 0.796875 -0.0859375 0.765625 -0.140625 L 0.515625 0.03125 L 0.4375 0.03125 C 0.332031 0.03125 0.25 0.00390625 0.1875 -0.046875 C 0.125 -0.109375 0.09375 -0.179688 0.09375 -0.265625 C 0.09375 -0.378906 0.15625 -0.46875 0.28125 -0.53125 L 0.734375 -0.546875 L 0.734375 -0.765625 C 0.734375 -0.890625 0.695312 -0.96875 0.625 -1 C 0.550781 -1 0.488281 -0.988281 0.4375 -0.96875 L 0.390625 -0.71875 L 0.203125 -0.703125 C 0.160156 -0.796875 0.140625 -0.894531 0.140625 -1 L 0.140625 -1.046875 C 0.234375 -1.085938 0.335938 -1.117188 0.453125 -1.140625 C 0.578125 -1.171875 0.671875 -1.1875 0.734375 -1.1875 C 0.796875 -1.1875 0.851562 -1.171875 0.90625 -1.140625 C 0.96875 -1.109375 1.015625 -1.066406 1.046875 -1.015625 C 1.066406 -0.984375 1.078125 -0.925781 1.078125 -0.84375 L 1.078125 -0.265625 C 1.078125 -0.222656 1.097656 -0.203125 1.140625 -0.203125 L 1.25 -0.21875 Z M 0.484375 -0.171875 C 0.546875 -0.171875 0.628906 -0.191406 0.734375 -0.234375 L 0.734375 -0.40625 L 0.671875 -0.40625 C 0.515625 -0.40625 0.4375 -0.363281 0.4375 -0.28125 C 0.4375 -0.238281 0.453125 -0.203125 0.484375 -0.171875 Z M 0.484375 -0.171875 "/></g></g></g><g fill="#ffffff" fill-opacity="1"><g transform="translate(51.563419, 88.52093)"><g><path d="M 0.625 -0.234375 C 0.675781 -0.234375 0.742188 -0.242188 0.828125 -0.265625 L 0.859375 -0.140625 L 0.484375 0.03125 C 0.421875 0.0390625 0.359375 0.0195312 0.296875 -0.03125 C 0.234375 -0.0820312 0.203125 -0.140625 0.203125 -0.203125 L 0.203125 -0.890625 L 0.03125 -0.890625 L 0.015625 -1.015625 C 0.078125 -1.054688 0.144531 -1.09375 0.21875 -1.125 L 0.328125 -1.4375 L 0.5 -1.4375 L 0.53125 -1.125 L 0.859375 -1.125 L 0.875 -1.015625 L 0.75 -0.890625 L 0.546875 -0.890625 L 0.546875 -0.34375 C 0.546875 -0.300781 0.550781 -0.269531 0.5625 -0.25 C 0.570312 -0.238281 0.59375 -0.234375 0.625 -0.234375 Z M 0.625 -0.234375 "/></g></g></g><g fill="#ffffff" fill-opacity="1"><g transform="translate(53.164315, 88.52093)"><g/></g></g><g fill="#ffffff" fill-opacity="1"><g transform="translate(54.485651, 88.52093)"><g><path d="M 1.3125 -1.03125 C 1.269531 -1 1.222656 -0.976562 1.171875 -0.96875 C 1.078125 -0.625 1 -0.359375 0.9375 -0.171875 C 0.863281 -0.0234375 0.773438 0.101562 0.671875 0.21875 C 0.578125 0.332031 0.453125 0.4375 0.296875 0.53125 L 0.109375 0.21875 C 0.316406 0.15625 0.476562 0.078125 0.59375 -0.015625 C 0.53125 -0.0234375 0.472656 -0.0507812 0.421875 -0.09375 L 0.109375 -0.9375 L -0.046875 -1.015625 L -0.046875 -1.140625 L 0.578125 -1.140625 L 0.59375 -1.03125 L 0.46875 -0.96875 L 0.609375 -0.515625 L 0.625 -0.296875 L 0.671875 -0.296875 C 0.742188 -0.515625 0.796875 -0.738281 0.828125 -0.96875 L 0.703125 -1.015625 L 0.703125 -1.140625 L 1.3125 -1.140625 Z M 1.3125 -1.03125 "/></g></g></g><g fill="#ffffff" fill-opacity="1"><g transform="translate(56.466463, 88.52093)"><g><path d="M 0.03125 -0.578125 C 0.03125 -0.753906 0.0820312 -0.898438 0.1875 -1.015625 C 0.300781 -1.128906 0.441406 -1.1875 0.609375 -1.1875 C 0.773438 -1.1875 0.910156 -1.128906 1.015625 -1.015625 C 1.128906 -0.898438 1.1875 -0.75 1.1875 -0.5625 C 1.1875 -0.375 1.132812 -0.222656 1.03125 -0.109375 C 0.925781 -0.00390625 0.789062 0.046875 0.625 0.046875 C 0.457031 0.046875 0.316406 -0.0078125 0.203125 -0.125 C 0.0859375 -0.25 0.03125 -0.398438 0.03125 -0.578125 Z M 0.71875 -0.15625 C 0.789062 -0.207031 0.828125 -0.332031 0.828125 -0.53125 C 0.828125 -0.664062 0.804688 -0.773438 0.765625 -0.859375 C 0.734375 -0.941406 0.675781 -0.984375 0.59375 -0.984375 C 0.550781 -0.984375 0.507812 -0.972656 0.46875 -0.953125 C 0.414062 -0.867188 0.390625 -0.742188 0.390625 -0.578125 C 0.390625 -0.453125 0.410156 -0.347656 0.453125 -0.265625 C 0.492188 -0.179688 0.554688 -0.140625 0.640625 -0.140625 C 0.671875 -0.140625 0.695312 -0.144531 0.71875 -0.15625 Z M 0.71875 -0.15625 "/></g></g></g><g fill="#ffffff" fill-opacity="1"><g transform="translate(58.385149, 88.52093)"><g><path d="M 1.453125 -0.109375 L 1.15625 0.03125 C 1.113281 0.03125 1.070312 0.015625 1.03125 -0.015625 C 0.988281 -0.0546875 0.957031 -0.101562 0.9375 -0.15625 C 0.789062 -0.0625 0.648438 0 0.515625 0.03125 C 0.472656 0.03125 0.421875 0.015625 0.359375 -0.015625 C 0.304688 -0.046875 0.265625 -0.0820312 0.234375 -0.125 C 0.210938 -0.164062 0.203125 -0.242188 0.203125 -0.359375 L 0.203125 -0.96875 L 0.015625 -0.984375 L 0 -1.09375 C 0.132812 -1.144531 0.273438 -1.175781 0.421875 -1.1875 L 0.546875 -1.078125 L 0.546875 -0.421875 C 0.546875 -0.285156 0.597656 -0.21875 0.703125 -0.21875 C 0.753906 -0.21875 0.820312 -0.234375 0.90625 -0.265625 L 0.90625 -0.96875 L 0.75 -0.984375 L 0.734375 -1.109375 C 0.847656 -1.148438 0.976562 -1.175781 1.125 -1.1875 L 1.25 -1.078125 L 1.25 -0.265625 C 1.25 -0.222656 1.269531 -0.203125 1.3125 -0.203125 L 1.421875 -0.21875 Z M 1.453125 -0.109375 "/></g></g></g><g fill="#ffffff" fill-opacity="1"><g transform="translate(60.535609, 88.52093)"><g><path d="M 0.796875 -1.140625 C 0.835938 -1.160156 0.878906 -1.171875 0.921875 -1.171875 C 1.003906 -1.171875 1.070312 -1.144531 1.125 -1.09375 C 1.113281 -0.914062 1.082031 -0.765625 1.03125 -0.640625 L 0.859375 -0.640625 L 0.8125 -0.90625 C 0.71875 -0.84375 0.632812 -0.769531 0.5625 -0.6875 L 0.5625 -0.203125 C 0.675781 -0.179688 0.765625 -0.148438 0.828125 -0.109375 L 0.8125 0 L 0.046875 0 L 0.046875 -0.078125 C 0.0859375 -0.109375 0.144531 -0.132812 0.21875 -0.15625 L 0.21875 -0.96875 L 0.03125 -0.984375 L 0.015625 -1.09375 C 0.160156 -1.144531 0.304688 -1.175781 0.453125 -1.1875 L 0.5625 -1.078125 L 0.5625 -0.875 Z M 0.796875 -1.140625 "/></g></g></g><g fill="#ffffff" fill-opacity="1"><g transform="translate(62.351554, 88.52093)"><g><path d="M 0.40625 -0.90625 C 0.40625 -0.863281 0.414062 -0.832031 0.4375 -0.8125 C 0.457031 -0.789062 0.53125 -0.75 0.65625 -0.6875 C 0.78125 -0.625 0.863281 -0.5625 0.90625 -0.5 C 0.957031 -0.445312 0.984375 -0.382812 0.984375 -0.3125 C 0.984375 -0.207031 0.941406 -0.117188 0.859375 -0.046875 C 0.773438 0.015625 0.660156 0.046875 0.515625 0.046875 C 0.359375 0.046875 0.203125 0.00390625 0.046875 -0.078125 L 0.171875 -0.359375 C 0.316406 -0.253906 0.460938 -0.179688 0.609375 -0.140625 C 0.640625 -0.160156 0.65625 -0.195312 0.65625 -0.25 C 0.65625 -0.28125 0.640625 -0.304688 0.609375 -0.328125 C 0.585938 -0.359375 0.515625 -0.40625 0.390625 -0.46875 C 0.273438 -0.53125 0.195312 -0.585938 0.15625 -0.640625 C 0.113281 -0.691406 0.09375 -0.753906 0.09375 -0.828125 C 0.09375 -0.929688 0.140625 -1.015625 0.234375 -1.078125 C 0.328125 -1.148438 0.445312 -1.1875 0.59375 -1.1875 C 0.726562 -1.1875 0.84375 -1.160156 0.9375 -1.109375 L 0.9375 -1.046875 C 0.9375 -0.953125 0.925781 -0.863281 0.90625 -0.78125 L 0.71875 -0.78125 L 0.65625 -1 C 0.59375 -1.007812 0.535156 -1.015625 0.484375 -1.015625 C 0.429688 -0.992188 0.40625 -0.957031 0.40625 -0.90625 Z M 0.40625 -0.90625 "/></g></g></g><g fill="#ffffff" fill-opacity="1"><g transform="translate(64.105371, 88.52093)"><g><path d="M 0.96875 -0.5625 L 0.359375 -0.578125 C 0.367188 -0.460938 0.40625 -0.367188 0.46875 -0.296875 C 0.539062 -0.234375 0.628906 -0.203125 0.734375 -0.203125 C 0.816406 -0.203125 0.914062 -0.234375 1.03125 -0.296875 L 1.09375 -0.15625 L 0.71875 0.03125 L 0.640625 0.03125 C 0.460938 0.03125 0.316406 -0.0195312 0.203125 -0.125 C 0.0859375 -0.238281 0.03125 -0.378906 0.03125 -0.546875 C 0.03125 -0.722656 0.0859375 -0.875 0.203125 -1 C 0.316406 -1.125 0.457031 -1.1875 0.625 -1.1875 C 0.769531 -1.1875 0.882812 -1.140625 0.96875 -1.046875 C 1.0625 -0.960938 1.109375 -0.847656 1.109375 -0.703125 Z M 0.546875 -1 C 0.460938 -0.957031 0.40625 -0.867188 0.375 -0.734375 L 0.796875 -0.765625 C 0.785156 -0.828125 0.753906 -0.878906 0.703125 -0.921875 C 0.660156 -0.972656 0.609375 -1 0.546875 -1 Z M 0.546875 -1 "/></g></g></g><g fill="#ffffff" fill-opacity="1"><g transform="translate(65.949988, 88.52093)"><g><path d="M 0.5625 -0.1875 C 0.632812 -0.164062 0.691406 -0.140625 0.734375 -0.109375 L 0.734375 0 L 0.046875 0 L 0.03125 -0.078125 C 0.0820312 -0.109375 0.144531 -0.132812 0.21875 -0.15625 L 0.21875 -1.546875 L 0.03125 -1.5625 L 0.015625 -1.671875 C 0.160156 -1.722656 0.304688 -1.753906 0.453125 -1.765625 L 0.5625 -1.65625 Z M 0.5625 -0.1875 "/></g></g></g><g fill="#ffffff" fill-opacity="1"><g transform="translate(67.436192, 88.52093)"><g><path d="M 0.546875 -0.890625 L 0.546875 -0.203125 C 0.628906 -0.171875 0.703125 -0.140625 0.765625 -0.109375 L 0.75 0 L 0.046875 0 L 0.03125 -0.078125 C 0.0703125 -0.0976562 0.128906 -0.125 0.203125 -0.15625 L 0.203125 -0.890625 L 0.03125 -0.890625 L 0.015625 -1.015625 C 0.078125 -1.046875 0.140625 -1.070312 0.203125 -1.09375 L 0.203125 -1.3125 C 0.203125 -1.445312 0.242188 -1.5625 0.328125 -1.65625 C 0.421875 -1.75 0.53125 -1.796875 0.65625 -1.796875 C 0.769531 -1.796875 0.878906 -1.753906 0.984375 -1.671875 L 0.796875 -1.375 C 0.691406 -1.476562 0.570312 -1.535156 0.4375 -1.546875 L 0.546875 -1.125 L 0.8125 -1.125 L 0.8125 -1.03125 L 0.703125 -0.890625 Z M 0.546875 -0.890625 "/></g></g></g></svg>